<svg width="35" height="35" viewBox="0 0 35 35" fill="none" xmlns="http://www.w3.org/2000/svg">
<rect opacity="0.01" x="6" y="1" width="24" height="24" fill="#D8D8D8"/>
<g filter="url(#filter0_d_3_7557)">
<path d="M28.12 12.56C28.12 6.7373 23.3827 2 17.56 2C11.7373 2 7 6.7373 7 12.56C7 18.3827 11.7373 23.12 17.56 23.12H26.8V21.8H22.661C25.9122 19.9979 28.12 16.5331 28.12 12.56Z" fill="#110E47" stroke="#110E47" stroke-width="0.66"/>
<path d="M8.32001 12.56C8.32001 7.46502 12.465 3.32001 17.56 3.32001C22.6551 3.32001 26.8 7.46498 26.8 12.56C26.8 17.655 22.655 21.8 17.56 21.8C12.465 21.8 8.32001 17.655 8.32001 12.56Z" fill="#D6D6FD" stroke="black" stroke-width="0.66"/>
<path fill-rule="evenodd" clip-rule="evenodd" d="M19.672 8.336C19.672 9.50061 18.7246 10.448 17.56 10.448C16.3953 10.448 15.448 9.50061 15.448 8.336C15.448 7.17139 16.3954 6.224 17.56 6.224C18.7246 6.224 19.672 7.17139 19.672 8.336ZM18.264 8.33602C18.264 7.94759 17.9484 7.63202 17.56 7.63202C17.1715 7.63202 16.856 7.94759 16.856 8.33602C16.856 8.72445 17.1716 9.04002 17.56 9.04002C17.9484 9.04002 18.264 8.72445 18.264 8.33602Z" fill="#110E47"/>
<path fill-rule="evenodd" clip-rule="evenodd" d="M13.9891 8.86155C15.096 9.22182 15.7037 10.416 15.3449 11.5228C15.0547 12.4145 14.2242 12.9824 13.334 12.9824C13.1181 12.9824 12.8994 12.9494 12.6836 12.8793C11.576 12.519 10.9683 11.3256 11.3271 10.218C11.6874 9.11044 12.8823 8.50269 13.9885 8.86155H13.9891ZM13.3367 10.1664C13.0397 10.1664 12.7626 10.3555 12.6664 10.6532C12.5468 11.0216 12.7495 11.4204 13.1187 11.5401C13.4845 11.6597 13.886 11.4576 14.0056 11.0877C14.1252 10.7192 13.9224 10.3211 13.5539 10.2008C13.4818 10.1774 13.4089 10.1664 13.3367 10.1664Z" fill="#110E47"/>
<path fill-rule="evenodd" clip-rule="evenodd" d="M13.3177 14.6964C14.0026 13.7557 15.3262 13.5453 16.2682 14.2288C17.2095 14.9136 17.4192 16.2373 16.7358 17.1793C16.4037 17.6366 15.9141 17.9364 15.3565 18.0244C15.2451 18.0423 15.133 18.0512 15.0216 18.0512C14.5795 18.0512 14.1497 17.9123 13.7846 17.6469C13.3281 17.3155 13.0283 16.8259 12.9403 16.2683C12.8516 15.7113 12.9856 15.153 13.3177 14.6964ZM15.1364 16.634C15.3221 16.6045 15.4857 16.5041 15.5964 16.3521C15.824 16.0379 15.7546 15.5964 15.4404 15.3682C15.3159 15.2782 15.1708 15.2341 15.0271 15.2341C14.8091 15.2341 14.5946 15.3352 14.4564 15.5243C14.3464 15.6762 14.3017 15.8626 14.3306 16.0482C14.3601 16.2339 14.4605 16.3975 14.6125 16.5082C14.7644 16.6182 14.9521 16.6595 15.1364 16.634Z" fill="#110E47"/>
<path fill-rule="evenodd" clip-rule="evenodd" d="M18.3842 17.1794C17.7008 16.2376 17.9105 14.914 18.8518 14.23C19.7938 13.5452 21.1188 13.7549 21.8023 14.6968C22.1344 15.1533 22.2684 15.7116 22.1797 16.2685C22.0917 16.8261 21.7919 17.3156 21.3354 17.647C20.9709 17.9123 20.5405 18.0512 20.0984 18.0512C19.987 18.0512 19.8749 18.0423 19.7635 18.0244C19.2059 17.9364 18.7163 17.6366 18.3849 17.1801L18.3842 17.1794ZM19.9836 16.6342C20.1692 16.661 20.3549 16.6191 20.5075 16.5084C20.6595 16.3977 20.7598 16.2341 20.7894 16.0484C20.8183 15.8628 20.7736 15.6765 20.6636 15.5246C20.4353 15.2104 19.9918 15.1403 19.6797 15.3692C19.3661 15.5968 19.296 16.0382 19.5236 16.3524C19.6343 16.5043 19.7979 16.6047 19.9836 16.6342Z" fill="#110E47"/>
<path fill-rule="evenodd" clip-rule="evenodd" d="M19.7751 11.5235C19.4163 10.416 20.024 9.22181 21.1309 8.86155C22.2378 8.50267 23.4326 9.11043 23.7929 10.2173C24.1517 11.3255 23.544 12.519 22.4371 12.8793H22.4365C22.2206 12.9494 22.0019 12.9824 21.7861 12.9824C20.8958 12.9824 20.0653 12.4145 19.7751 11.5235ZM21.1144 11.0883C21.234 11.4575 21.6314 11.6603 22.0019 11.54C22.3704 11.4197 22.5732 11.0216 22.4536 10.6524C22.3574 10.3554 22.0803 10.1664 21.7833 10.1664C21.7111 10.1664 21.6382 10.1774 21.5661 10.2007C21.1975 10.321 20.9947 10.7191 21.1144 11.0883Z" fill="#110E47"/>
<path d="M18.456 11.6639C18.9509 12.1588 18.9509 12.9611 18.456 13.456C17.9612 13.9509 17.1588 13.9509 16.6639 13.456C16.1691 12.9611 16.1691 12.1588 16.6639 11.6639C17.1588 11.1691 17.9612 11.1691 18.456 11.6639Z" fill="#110E47"/>
</g>
<defs>
<filter id="filter0_d_3_7557" x="0.669983" y="0.669998" width="33.78" height="33.78" filterUnits="userSpaceOnUse" color-interpolation-filters="sRGB">
<feFlood flood-opacity="0" result="BackgroundImageFix"/>
<feColorMatrix in="SourceAlpha" type="matrix" values="0 0 0 0 0 0 0 0 0 0 0 0 0 0 0 0 0 0 127 0" result="hardAlpha"/>
<feOffset dy="5"/>
<feGaussianBlur stdDeviation="3"/>
<feColorMatrix type="matrix" values="0 0 0 0 0.461471 0 0 0 0 0.461471 0 0 0 0 0.741678 0 0 0 0.2 0"/>
<feBlend mode="normal" in2="BackgroundImageFix" result="effect1_dropShadow_3_7557"/>
<feBlend mode="normal" in="SourceGraphic" in2="effect1_dropShadow_3_7557" result="shape"/>
</filter>
</defs>
</svg>
