<svg width="24" height="24" viewBox="0 0 24 24" fill="none" xmlns="http://www.w3.org/2000/svg">
<rect opacity="0.01" width="24" height="24" fill="#D8D8D8"/>
<path fill-rule="evenodd" clip-rule="evenodd" d="M5 3.87501L5 20.125C5 21.1589 5.78501 22 6.74997 22H9.66664C9.98908 22 10.25 21.7205 10.25 21.375C10.25 20.3411 11.035 19.5 12 19.5C12.965 19.5 13.75 20.3411 13.75 21.375C13.75 21.7205 14.0109 22 14.3333 22H17.25C18.215 22 19 21.1589 19 20.125V3.87501C19 2.84108 18.215 2 17.25 2L14.3333 2C14.0109 2 13.75 2.27953 13.75 2.625C13.75 3.65893 12.965 4.50001 12 4.50001C11.035 4.50001 10.25 3.65893 10.25 2.625C10.25 2.27953 9.98912 2 9.66668 2L6.75 2C5.78501 2 5 2.84108 5 3.87501ZM6.84546 3.25H9.19399C9.46021 4.67455 10.6168 5.75001 12 5.75001C13.3832 5.75001 14.5398 4.67455 14.806 3.25H17.1546C17.4705 3.25 17.7273 3.53016 17.7273 3.875V20.125C17.7273 20.4698 17.4705 20.75 17.1546 20.75H14.8061C14.5398 19.3254 13.3832 18.25 12 18.25C10.6168 18.25 9.46021 19.3254 9.19399 20.75H6.84546C6.52947 20.75 6.27273 20.4698 6.27273 20.125L6.27273 3.875C6.27273 3.53016 6.52947 3.25 6.84546 3.25Z" fill="#BCBCCD"/>
<path d="M6.74997 22L6.74995 22.308H6.74997V22ZM13.75 2.625H14.058V2.62497L13.75 2.625ZM9.19399 3.25L9.49675 3.19342L9.44976 2.942H9.19399V3.25ZM14.806 3.25V2.942H14.5503L14.5033 3.19342L14.806 3.25ZM14.8061 20.75L14.5033 20.8066L14.5503 21.058H14.8061V20.75ZM9.19399 20.75V21.058H9.44976L9.49675 20.8066L9.19399 20.75ZM5.308 20.125L5.308 3.87501H4.692L4.692 20.125H5.308ZM6.74998 21.692C5.97478 21.692 5.308 21.0092 5.308 20.125H4.692C4.692 21.3087 5.59523 22.3079 6.74995 22.308L6.74998 21.692ZM9.66664 21.692H6.74997V22.308H9.66664V21.692ZM9.94198 21.375C9.94198 21.5707 9.7993 21.692 9.66664 21.692V22.308C10.1789 22.308 10.558 21.8702 10.558 21.375H9.94198ZM12 19.192C10.8452 19.192 9.94198 20.1913 9.94198 21.375H10.558C10.558 20.4908 11.2248 19.808 12 19.808V19.192ZM14.058 21.375C14.058 20.1913 13.1548 19.192 12 19.192V19.808C12.7752 19.808 13.442 20.4908 13.442 21.375H14.058ZM14.3333 21.692C14.2007 21.692 14.058 21.5707 14.058 21.375H13.442C13.442 21.8702 13.8211 22.308 14.3333 22.308V21.692ZM17.25 21.692H14.3333V22.308H17.25V21.692ZM18.692 20.125C18.692 21.0092 18.0252 21.692 17.25 21.692V22.308C18.4048 22.308 19.308 21.3087 19.308 20.125H18.692ZM18.692 3.87501V20.125H19.308V3.87501H18.692ZM17.25 2.308C18.0252 2.308 18.692 2.99082 18.692 3.87501H19.308C19.308 2.69134 18.4048 1.692 17.25 1.692V2.308ZM14.3333 2.308L17.25 2.308V1.692L14.3333 1.692V2.308ZM14.058 2.62497C14.058 2.42927 14.2007 2.308 14.3333 2.308V1.692C13.8211 1.692 13.442 2.12979 13.442 2.62504L14.058 2.62497ZM12 4.80801C13.1548 4.80801 14.058 3.80867 14.058 2.625H13.442C13.442 3.50919 12.7752 4.19201 12 4.19201V4.80801ZM9.94201 2.625C9.94201 3.80867 10.8452 4.80801 12 4.80801V4.19201C11.2248 4.19201 10.558 3.50919 10.558 2.625H9.94201ZM9.66668 2.308C9.79934 2.308 9.94201 2.42928 9.94201 2.625H10.558C10.558 2.12979 10.1789 1.692 9.66668 1.692V2.308ZM6.75 2.308L9.66668 2.308V1.692L6.75 1.692V2.308ZM5.308 3.87501C5.308 2.99082 5.97478 2.308 6.75 2.308V1.692C5.59523 1.692 4.692 2.69134 4.692 3.87501H5.308ZM9.19399 2.942L6.84546 2.942V3.558H9.19399V2.942ZM12 5.44201C10.7865 5.44201 9.73985 4.49428 9.49675 3.19342L8.89123 3.30658C9.18056 4.85482 10.4472 6.05801 12 6.05801V5.44201ZM14.5033 3.19342C14.2602 4.49428 13.2135 5.44201 12 5.44201V6.05801C13.5528 6.05801 14.8195 4.85482 15.1088 3.30658L14.5033 3.19342ZM17.1546 2.942H14.806V3.558H17.1546V2.942ZM18.0353 3.875C18.0353 3.38594 17.6654 2.942 17.1546 2.942V3.558C17.2757 3.558 17.4193 3.67439 17.4193 3.875H18.0353ZM18.0353 20.125V3.875H17.4193V20.125H18.0353ZM17.1546 21.058C17.6654 21.058 18.0353 20.6141 18.0353 20.125H17.4193C17.4193 20.3256 17.2757 20.442 17.1546 20.442V21.058ZM14.8061 21.058H17.1546V20.442H14.8061V21.058ZM12 18.558C13.2136 18.558 14.2602 19.5057 14.5033 20.8066L15.1088 20.6934C14.8194 19.1451 13.5529 17.942 12 17.942V18.558ZM9.49675 20.8066C9.73985 19.5057 10.7865 18.558 12 18.558V17.942C10.4472 17.942 9.18056 19.1452 8.89123 20.6934L9.49675 20.8066ZM6.84546 21.058H9.19399V20.442H6.84546V21.058ZM5.96474 20.125C5.96474 20.6141 6.33459 21.058 6.84546 21.058V20.442C6.72434 20.442 6.58073 20.3256 6.58073 20.125H5.96474ZM5.96474 3.875L5.96474 20.125H6.58073L6.58073 3.875H5.96474ZM6.84546 2.942C6.33459 2.942 5.96474 3.38594 5.96474 3.875H6.58073C6.58073 3.67439 6.72434 3.558 6.84546 3.558V2.942Z" fill="#BCBCCD"/>
</svg>
