<svg width="22" height="16" viewBox="0 0 22 16" fill="none" xmlns="http://www.w3.org/2000/svg">
<path opacity="0.5" d="M21.2734 7.92763C21.2431 7.85499 20.5078 6.12719 18.8733 4.39572C16.6953 2.08862 13.9444 0.869324 10.9167 0.869324C7.88889 0.869324 5.13802 2.08862 2.96006 4.39572C1.32551 6.12719 0.586797 7.85774 0.559888 7.92763C0.520402 8.02171 0.5 8.12352 0.5 8.22647C0.5 8.32943 0.520402 8.43124 0.559888 8.52532C0.59027 8.59796 1.32551 10.3248 2.96006 12.0563C5.13802 14.3625 7.88889 15.5818 10.9167 15.5818C13.9444 15.5818 16.6953 14.3625 18.8733 12.0563C20.5078 10.3248 21.2431 8.59796 21.2734 8.52532C21.3129 8.43124 21.3333 8.32943 21.3333 8.22647C21.3333 8.12352 21.3129 8.02171 21.2734 7.92763ZM10.9167 11.9037C10.2299 11.9037 9.55861 11.688 8.9876 11.2838C8.4166 10.8796 7.97155 10.3052 7.70875 9.63311C7.44594 8.96102 7.37718 8.22148 7.51116 7.50799C7.64514 6.79451 7.97583 6.13913 8.46143 5.62473C8.94703 5.11034 9.56572 4.76003 10.2393 4.61811C10.9128 4.47619 11.611 4.54903 12.2454 4.82742C12.8799 5.10581 13.4222 5.57724 13.8037 6.1821C14.1853 6.78697 14.3889 7.49809 14.3889 8.22556C14.3889 9.20105 14.0231 10.1366 13.3719 10.8264C12.7207 11.5162 11.8376 11.9037 10.9167 11.9037Z" fill="black"/>
</svg>
